<?xml version="1.0" encoding="utf-8"?><svg viewBox="0 0 154 24" xmlns="http://www.w3.org/2000/svg" xmlns:xlink="http://www.w3.org/1999/xlink"><style>:root>svg{display:none}:root>svg:target{display:block}</style><svg fill="none" viewBox="0 0 154 24" id="logo" xmlns="http://www.w3.org/2000/svg"><g clip-path="url(#aclip0)" fill="#028585"><path d="M30.156 3.383H17.331V0h-4.81A4.489 4.489 0 008.85 1.732L0 13.066l4.36 7.551h12.826v3.431h4.81a4.473 4.473 0 003.655-1.78l8.85-11.334-4.345-7.551zm-8.93 14.252H17.25v-3.318H7.038L13.291 6.3h3.96V9.7h10.212l-6.236 7.935zM55.214 5.05h-8.112v14.717h8.112a4.81 4.81 0 003.511-1.186 4.81 4.81 0 001.187-3.511V9.747a4.81 4.81 0 00-1.187-3.51 4.81 4.81 0 00-3.51-1.187zm1.283 9.828a1.892 1.892 0 01-2.132 2.116h-3.832V7.615h3.832a1.908 1.908 0 012.132 2.132v5.13zM87.728 4.393h-3.32v2.934h3.32V4.393zM87.727 19.768V8.545H83.32v2.437l1.09.016v8.77h3.318zM92.216 18.966a2.934 2.934 0 002.18.801h3.849v-2.549h-2.566a.929.929 0 01-.962-.945v-5.291h3.207V8.529h-3.207V5.05H91.8l-.417 3.479h-1.25v2.453h1.25v5.771a3.045 3.045 0 00.833 2.213zM103.487 19.768h2.597l1.876-1.235.256-.176.273 1.41h2.886v-8.272a2.876 2.876 0 00-.754-2.164 2.946 2.946 0 00-2.18-.802h-7.439v2.373h6.14a.933.933 0 01.674.257.917.917 0 01.272.657v.85h-4.601a2.9 2.9 0 00-2.18.801 2.954 2.954 0 00-.818 2.18v1.155a2.955 2.955 0 00.818 2.18 2.903 2.903 0 002.18.786zm.321-3.912a.973.973 0 01.272-.69.956.956 0 01.69-.272h3.286v1.828h-.144a8.117 8.117 0 01-.898.208l-.834.16a5.835 5.835 0 01-.881 0h-.529a.958.958 0 01-.69-.272.941.941 0 01-.272-.674v-.288zM117.034 19.768h2.341v-2.566h-1.074a.931.931 0 01-.946-.945V5.034h-3.319V16.77a2.94 2.94 0 00.818 2.18 2.899 2.899 0 002.18.818zM134.669 19.767a4.005 4.005 0 002.902-1.041 3.945 3.945 0 00.914-2.886v-1.042a3.9 3.9 0 00-.914-2.87c-.81-.673-1.852-1-2.902-.914h-3.879a1.331 1.331 0 01-1.491-1.395v-.513a1.329 1.329 0 011.491-1.49h6.092V5.05h-6.942c-1.12-.099-2.235.24-3.11.946a4.345 4.345 0 00-.946 3.11v.642a4.343 4.343 0 00.946 3.078 4.344 4.344 0 003.11.945h5.114v2.053a1.199 1.199 0 01-.353.881 1.276 1.276 0 01-.929.321h-7.696v2.741h8.593zM149.756 5.05l-3.768 10.87-3.784-10.87h-3.703l5.563 14.717h3.832l5.579-14.717h-3.719zM79.872 22.525a2.982 2.982 0 00.801-2.164V8.529h-3.206l-.24 1.186-.193-.096-1.603-1.026h-2.437a3.207 3.207 0 00-2.357.834 3.205 3.205 0 00-.85 2.373v4.408a2.935 2.935 0 00.754 2.117 2.982 2.982 0 002.18.817h1.908l1.17-.16c.417 0 .85-.128 1.251-.209h.24v1.283a.915.915 0 01-.272.657.913.913 0 01-.673.273h-6.076v2.485h7.422a2.965 2.965 0 002.18-.946zm-2.517-6.108h-.16l-.786.128a6.767 6.767 0 01-.85 0h-1.507a.978.978 0 01-.673-.273.914.914 0 01-.273-.673V12.04a.945.945 0 011.058-1.042h3.207l-.016 5.419zM66.87 19.767V8.53h-4.41v2.437h1.091v8.801h3.319zM66.87 4.393H63.55v2.902h3.319V4.393z"/></g><defs><clipPath id="aclip0"><path fill="#fff" d="M0 0h153.475v24H0z"/></clipPath></defs></svg></svg>