<svg width="154" height="24" viewBox="0 0 154 24" fill="none" xmlns="http://www.w3.org/2000/svg">
<g clip-path="url(#clip0)">
<path d="M30.1563 3.38287H17.3307V0.000109375H12.521C11.8161 -0.0199603 11.1163 0.126345 10.4785 0.427167C9.84063 0.727989 9.28263 1.17486 8.8497 1.73157L0 13.0662L4.36072 20.6173H17.1864V24.0482H21.996C22.7025 24.0614 23.4021 23.907 24.0375 23.5977C24.6729 23.2884 25.2259 22.8329 25.6513 22.2686L34.501 10.934L30.1563 3.38287ZM21.2265 17.6354H17.2505V14.3167H7.03808L13.2906 6.30071H17.2505V9.69951H27.4629L21.2265 17.6354Z" fill="#028585"/>
<path d="M55.2144 5.04999H47.1022V19.7674H55.2144C55.849 19.8117 56.4861 19.7296 57.0888 19.526C57.6915 19.3224 58.2478 19.0012 58.7255 18.5811C59.1456 18.1034 59.4667 17.5471 59.6704 16.9444C59.874 16.3417 59.9561 15.7046 59.9118 15.07V9.74739C59.9561 9.11278 59.874 8.47569 59.6704 7.87302C59.4667 7.27034 59.1456 6.71406 58.7255 6.23636C58.2478 5.81625 57.6915 5.49507 57.0888 5.29142C56.4861 5.08778 55.849 5.00572 55.2144 5.04999ZM56.497 14.8776C56.5341 15.1658 56.5044 15.4586 56.4101 15.7334C56.3159 16.0082 56.1596 16.2576 55.9534 16.4622C55.7472 16.6669 55.4966 16.8213 55.2211 16.9135C54.9456 17.0057 54.6526 17.0332 54.3647 16.9939H50.5331V7.61512H54.3647C54.6534 7.57858 54.9467 7.60858 55.222 7.70281C55.4974 7.79705 55.7475 7.95303 55.9533 8.15881C56.1591 8.36459 56.3151 8.61473 56.4093 8.89007C56.5035 9.16541 56.5335 9.45867 56.497 9.74739V14.8776Z" fill="#028585"/>
<path d="M87.7275 4.39282H84.4088V7.32669H87.7275V4.39282Z" fill="#028585"/>
<path d="M87.7274 19.7676V8.54517H83.3186V10.982L84.4088 10.9981V19.7676H87.7274Z" fill="#028585"/>
<path d="M92.2164 18.9659C92.5061 19.2409 92.8489 19.4538 93.2239 19.5917C93.5988 19.7295 93.9979 19.7893 94.3968 19.7675H98.2445V17.2184H95.6793C95.5532 17.2228 95.4275 17.2014 95.3099 17.1556C95.1922 17.1098 95.0852 17.0406 94.9952 16.9521C94.9052 16.8636 94.8341 16.7577 94.7864 16.6409C94.7386 16.524 94.7152 16.3987 94.7174 16.2725V10.9819H97.9238V8.52901H94.7174V5.05005H91.7996L91.3827 8.52901H90.1322V10.9819H91.3827V16.7535C91.3672 17.1592 91.433 17.5639 91.5762 17.9438C91.7193 18.3238 91.937 18.6713 92.2164 18.9659Z" fill="#028585"/>
<path d="M103.487 19.7677H106.084L107.96 18.5332L108.216 18.3568L108.489 19.7677H111.375V11.4951C111.404 11.102 111.352 10.7072 111.222 10.335C111.092 9.96272 110.888 9.62097 110.621 9.3308C110.331 9.05657 109.988 8.84412 109.613 8.70633C109.239 8.56854 108.84 8.50828 108.441 8.5292H101.002V10.9019H107.142C107.266 10.8977 107.389 10.9183 107.505 10.9623C107.62 11.0064 107.726 11.073 107.816 11.1585C107.903 11.2442 107.972 11.3466 108.019 11.4595C108.065 11.5724 108.089 11.6935 108.088 11.8158V12.6655H103.487C103.088 12.6417 102.688 12.7006 102.313 12.8386C101.938 12.9765 101.595 13.1905 101.307 13.4671C101.03 13.7565 100.815 14.0989 100.675 14.4737C100.534 14.8484 100.471 15.2476 100.489 15.6474V16.8017C100.471 17.2015 100.534 17.6008 100.675 17.9755C100.815 18.3502 101.03 18.6926 101.307 18.9821C101.597 19.2558 101.94 19.4668 102.315 19.602C102.69 19.7372 103.089 19.7936 103.487 19.7677ZM103.808 15.8558C103.804 15.5992 103.902 15.3516 104.08 15.1665C104.171 15.0777 104.279 15.0079 104.398 14.9611C104.516 14.9143 104.642 14.8915 104.77 14.8939H108.056V16.7216H107.912C107.617 16.808 107.317 16.8776 107.014 16.93L106.18 17.0903C105.887 17.1125 105.592 17.1125 105.299 17.0903H104.77C104.642 17.0927 104.516 17.0699 104.398 17.0231C104.279 16.9763 104.171 16.9065 104.08 16.8178C103.993 16.729 103.923 16.6239 103.877 16.5083C103.83 16.3927 103.806 16.2691 103.808 16.1444V15.8558Z" fill="#028585"/>
<path d="M117.034 19.7676H119.375V17.2025H118.301C118.176 17.2047 118.052 17.1817 117.936 17.1349C117.82 17.0882 117.715 17.0186 117.627 16.9303C117.539 16.842 117.469 16.7369 117.422 16.6212C117.375 16.5054 117.353 16.3814 117.355 16.2566V5.03418H114.036V16.7696C114.016 17.1696 114.079 17.5694 114.219 17.9444C114.36 18.3194 114.576 18.6616 114.854 18.95C115.141 19.2295 115.483 19.4464 115.858 19.5871C116.234 19.7279 116.634 19.7893 117.034 19.7676Z" fill="#028585"/>
<path d="M134.669 19.7675C135.198 19.794 135.726 19.7156 136.224 19.5367C136.722 19.3578 137.18 19.0821 137.571 18.7255C137.906 18.3283 138.159 17.869 138.316 17.3737C138.473 16.8785 138.53 16.3572 138.485 15.8397V14.7976C138.531 14.2826 138.473 13.7636 138.317 13.2709C138.16 12.7782 137.906 12.3216 137.571 11.9279C136.761 11.2553 135.719 10.9272 134.669 11.014H130.79C130.596 11.0378 130.4 11.0189 130.215 10.9586C130.03 10.8983 129.86 10.7981 129.718 10.6651C129.576 10.5321 129.465 10.3695 129.392 10.1888C129.32 10.0081 129.288 9.81364 129.299 9.61924V9.10622C129.272 8.9042 129.293 8.69885 129.358 8.506C129.424 8.31315 129.533 8.13794 129.677 7.99389C129.821 7.84984 129.997 7.74079 130.189 7.67514C130.382 7.60949 130.588 7.589 130.79 7.61524H136.882V5.05011H129.94C128.82 4.95104 127.705 5.2901 126.83 5.996C126.124 6.87127 125.785 7.98614 125.884 9.10622V9.7475C125.793 10.8568 126.132 11.9586 126.83 12.8257C127.705 13.5316 128.82 13.8706 129.94 13.7715H135.054V15.8237C135.058 15.9869 135.029 16.1492 134.968 16.3008C134.908 16.4524 134.817 16.5901 134.701 16.7054C134.575 16.8174 134.428 16.9034 134.268 16.9584C134.109 17.0134 133.94 17.0364 133.772 17.0261H126.076V19.7675H134.669Z" fill="#028585"/>
<path d="M149.756 5.05005L145.988 15.9198L142.204 5.05005H138.501L144.064 19.7675H147.896L153.475 5.05005H149.756Z" fill="#028585"/>
<path d="M79.8717 22.525C80.1424 22.2356 80.3528 21.8952 80.4904 21.5236C80.628 21.152 80.6902 20.7566 80.6733 20.3607V8.52905H77.4669L77.2264 9.71542L77.034 9.61923L75.4308 8.59318H72.994C72.5653 8.56725 72.1359 8.62768 71.731 8.77088C71.3262 8.91409 70.9542 9.13716 70.6373 9.42685C70.3427 9.74444 70.1155 10.1184 69.9695 10.5262C69.8235 10.934 69.7616 11.3672 69.7876 11.7996V16.2084C69.768 16.5934 69.8245 16.9784 69.9537 17.3415C70.083 17.7046 70.2826 18.0387 70.5411 18.3246C70.8311 18.6002 71.1735 18.8146 71.5481 18.9551C71.9227 19.0956 72.3217 19.1592 72.7214 19.1423H73.4589C73.8276 19.1423 74.2284 19.1423 74.6292 19.1423L75.7996 18.982C76.2164 18.982 76.6493 18.8537 77.0501 18.7735H77.2906V20.0561C77.2914 20.1783 77.2677 20.2995 77.2209 20.4124C77.1741 20.5253 77.1051 20.6277 77.018 20.7134C76.9304 20.8025 76.8254 20.8726 76.7096 20.9195C76.5938 20.9663 76.4696 20.989 76.3447 20.986H70.2685V23.4709H77.6914C78.1004 23.4721 78.5052 23.3887 78.8804 23.2259C79.2557 23.0632 79.5931 22.8245 79.8717 22.525ZM77.3547 16.4168H77.1944L76.4088 16.5451C76.1258 16.5629 75.842 16.5629 75.5591 16.5451H74.0521C73.801 16.5441 73.5599 16.4465 73.3787 16.2725C73.2897 16.1849 73.2196 16.0799 73.1727 15.9641C73.1258 15.8483 73.1032 15.7241 73.1062 15.5992V12.0401C73.0905 11.898 73.1073 11.7542 73.1552 11.6196C73.2031 11.4849 73.2808 11.3629 73.3827 11.2626C73.4845 11.1623 73.6077 11.0864 73.7431 11.0405C73.8785 10.9947 74.0225 10.9802 74.1643 10.998H77.3707L77.3547 16.4168Z" fill="#028585"/>
<path d="M66.8697 19.7675V8.52905H62.4609V10.9659H63.5511V19.7675H66.8697Z" fill="#028585"/>
<path d="M66.8697 4.39282H63.5511V7.29463H66.8697V4.39282Z" fill="#028585"/>
</g>
<defs>
<clipPath id="clip0">
<rect width="153.475" height="24" fill="white"/>
</clipPath>
</defs>
</svg>
